# xmcd
#
# Track frame offsets: 
#        150
#        13604
#        31235
#        45192
#        63506
#        75664
#        86442
#        99757
#        111329
#        125125
#        137604
#        148239
#        166760
#        179659
#
# Disc length: 2581 seconds
#
# Revision: 0
# Processed by: cddbd v1.5.2PL0 Copyright (c) Steve Scherf et al.
# Submitted via: ExactAudioCopy v1.0b4
#
DISCID=b30a130e
DTITLE=Warren Storm and The Blues Rockers - Dust My Blues
DYEAR=2002
DGENRE=Blues
TTITLE0=Sugar Bee
TTITLE1=Dust My Blues
TTITLE2=Honey Hush
TTITLE3=Bad Boy
TTITLE4=Gin And Coconut Milk
TTITLE5=Rainin' In My Heart
TTITLE6=Mellow Down Easy
TTITLE7=If You Need Me
TTITLE8=You're Humbuggin' Me
TTITLE9=Santa Fe
TTITLE10=Blues Come Knockin'
TTITLE11=Little Bit Lonesome
TTITLE12=Ways Like A Catfish
TTITLE13=Cadillac
EXTD=
EXTT0=
EXTT1=
EXTT2=
EXTT3=
EXTT4=
EXTT5=
EXTT6=
EXTT7=
EXTT8=
EXTT9=
EXTT10=
EXTT11=
EXTT12=
EXTT13=
PLAYORDER=
